<?xml version="1.0" standalone="no"?>
<!DOCTYPE svg PUBLIC "-//W3C//DTD SVG 20010904//EN"
 "http://www.w3.org/TR/2001/REC-SVG-20010904/DTD/svg10.dtd">
<svg version="1.0" xmlns="http://www.w3.org/2000/svg"
 width="96.000000pt" height="96.000000pt" viewBox="0 0 96.000000 96.000000"
 preserveAspectRatio="xMidYMid meet">
<metadata>
Created by potrace 1.11, written by Peter Selinger 2001-2013
</metadata>
<g transform="translate(0.000000,96.000000) scale(0.100000,-0.100000)"
fill="#000000" stroke="none">
<path d="M92 943 c-18 -9 -45 -32 -60 -51 l-27 -35 0 -377 0 -377 27 -35 c51
-67 56 -68 448 -68 392 0 397 1 448 68 l27 35 0 377 0 377 -27 35 c-51 67 -55
68 -450 68 -306 0 -357 -3 -386 -17z m789 -71 l30 -33 -3 -364 -3 -365 -28
-27 -27 -28 -370 0 -370 0 -27 28 -28 27 -3 363 c-3 360 -2 364 19 391 12 15
31 32 43 36 11 5 182 8 379 7 l359 -2 29 -33z"/>
<path d="M441 846 c-8 -9 -11 -26 -7 -39 4 -19 0 -27 -20 -38 -49 -26 -66 -89
-43 -154 10 -28 8 -41 -22 -111 l-34 -79 -50 -5 c-36 -4 -50 -9 -50 -20 0 -10
12 -16 38 -18 20 -2 37 -7 37 -12 0 -6 -16 -48 -36 -96 -37 -91 -39 -128 -5
-158 16 -15 21 -7 73 122 54 134 57 137 88 140 18 2 37 -1 43 -7 23 -23 37
-11 37 28 0 45 -17 62 -35 38 -10 -14 -55 -25 -55 -14 0 2 11 30 24 63 19 47
29 60 48 62 21 3 27 -5 50 -63 25 -62 25 -65 7 -65 -12 0 -19 -7 -19 -20 0
-15 7 -20 28 -20 26 0 31 -7 72 -107 24 -60 50 -124 58 -143 l14 -35 19 24
c28 34 23 79 -16 171 -19 45 -35 83 -35 85 0 2 21 5 48 7 34 2 47 7 47 18 0
11 -14 16 -57 18 l-56 3 -36 85 c-34 82 -35 85 -19 118 22 47 11 98 -28 130
-17 14 -34 26 -37 26 -4 0 -7 17 -7 37 0 33 -3 38 -26 41 -14 2 -31 -4 -38
-12z m73 -132 c35 -34 8 -104 -41 -104 -27 0 -63 33 -63 58 0 52 68 82 104 46z"/>
</g>
</svg>
